<svg xmlns="http://www.w3.org/2000/svg" viewBox="0 0 137.86 102.36"><defs><style>.cls-1{fill:#fff;}</style></defs><g id="Camada_2" data-name="Camada 2"><g id="Layer_1" data-name="Layer 1"><path class="cls-1" d="M11,94.56A3.72,3.72,0,0,0,10,93.85a5,5,0,0,0-1-.35,3,3,0,0,0,.7-.31,3.37,3.37,0,0,0,.79-.65,4.39,4.39,0,0,0,.65-1,3.19,3.19,0,0,0,.27-1.35,4.36,4.36,0,0,0-.29-1.56,3.43,3.43,0,0,0-.93-1.33,4.74,4.74,0,0,0-1.67-.91A7.89,7.89,0,0,0,6,86H0V102H6a12,12,0,0,0,2.58-.25,5.38,5.38,0,0,0,2-.8,3.75,3.75,0,0,0,1.24-1.41,4.47,4.47,0,0,0,.45-2.1,3.76,3.76,0,0,0-.35-1.66A3.84,3.84,0,0,0,11,94.56ZM3.55,88.82H5.67a3.53,3.53,0,0,1,.78.09,2.06,2.06,0,0,1,.7.28,1.56,1.56,0,0,1,.5.55,1.75,1.75,0,0,1,.19.87,1.7,1.7,0,0,1-.19.85,1.63,1.63,0,0,1-.49.55,2.4,2.4,0,0,1-.69.3,3.57,3.57,0,0,1-.8.09H3.55Zm4.76,9.41a1.83,1.83,0,0,1-.68.62,2.65,2.65,0,0,1-.88.27,7.07,7.07,0,0,1-.87.06H3.55V95H5.88a5.76,5.76,0,0,1,.89.08,2.88,2.88,0,0,1,.88.31,1.77,1.77,0,0,1,.93,1.69A2,2,0,0,1,8.31,98.23Z"/><path class="cls-1" d="M26.45,93.73A5.2,5.2,0,0,0,27.13,91a5.33,5.33,0,0,0-.34-1.93,4.25,4.25,0,0,0-1.05-1.59A5.08,5.08,0,0,0,24,86.42,7,7,0,0,0,21.55,86H15.63V102h3.51V96.1h2l3,5.85h4l-3.54-6.37A5,5,0,0,0,26.45,93.73Zm-3.52-1.11a2.07,2.07,0,0,1-1.57.6H19.14V89h2.22a2.13,2.13,0,0,1,1.57.57,2.31,2.31,0,0,1,0,3.06Z"/><path class="cls-1" d="M36,86,30,102H33.8L35,98.3h5.61L41.84,102h3.94L40,86Zm-.12,9.48,2-6,1.94,6Z"/><path class="cls-1" d="M58.47,93.81a5.5,5.5,0,0,0-1.51-1,10.65,10.65,0,0,0-1.73-.58,8.08,8.08,0,0,1-2.36-.84A1.47,1.47,0,0,1,52,90.11a1,1,0,0,1,.18-.58,1.53,1.53,0,0,1,.47-.48,3,3,0,0,1,.67-.32,2.45,2.45,0,0,1,.75-.12,4.28,4.28,0,0,1,1.09.14,5.73,5.73,0,0,1,1.72.82l.61.47,2.07-2.29c-.14-.14-.35-.34-.63-.59a6,6,0,0,0-1.07-.71,8,8,0,0,0-1.59-.6,8.19,8.19,0,0,0-2.15-.25,7.53,7.53,0,0,0-2.56.39,5.27,5.27,0,0,0-1.82,1.08,4.41,4.41,0,0,0-1.09,1.56,5.16,5.16,0,0,0-.35,1.89,4.13,4.13,0,0,0,.31,1.64,3.89,3.89,0,0,0,.87,1.32,5.21,5.21,0,0,0,1.34,1,7.29,7.29,0,0,0,1.68.62,12.15,12.15,0,0,1,2.72,1,1.53,1.53,0,0,1,.86,1.38,1.34,1.34,0,0,1-.2.72,1.89,1.89,0,0,1-.54.55,2.65,2.65,0,0,1-.74.35,2.84,2.84,0,0,1-.81.12A4.49,4.49,0,0,1,52.5,99a5.17,5.17,0,0,1-1.13-.47,6.31,6.31,0,0,1-.93-.63,8.21,8.21,0,0,1-.73-.68L47.4,99.71a7.59,7.59,0,0,0,1.09,1,7.29,7.29,0,0,0,1.42.84,8.45,8.45,0,0,0,1.76.6,9.76,9.76,0,0,0,2.17.23,7.74,7.74,0,0,0,2.4-.37,6.32,6.32,0,0,0,1.94-1,5,5,0,0,0,1.3-1.58,4.14,4.14,0,0,0,.48-2,5,5,0,0,0-.41-2.11A4.45,4.45,0,0,0,58.47,93.81Z"/><rect class="cls-1" x="63.44" y="86.03" width="3.6" height="15.92"/><polygon class="cls-1" points="74.78 86.03 71.17 86.03 71.17 101.95 82.39 101.95 82.39 98.75 74.78 98.75 74.78 86.03"/><polygon class="cls-1" points="88.72 95.34 94.38 95.34 94.38 92.28 88.72 92.28 88.72 89.18 96 89.18 96 86.03 85.12 86.03 85.12 101.95 96.53 101.95 96.53 98.78 88.72 98.78 88.72 95.34"/><rect class="cls-1" x="99.98" y="86.03" width="3.6" height="15.92"/><path class="cls-1" d="M118.53,93.73a5.7,5.7,0,0,0,.34-4.64,4.37,4.37,0,0,0-1.05-1.59,5.08,5.08,0,0,0-1.76-1.08,7,7,0,0,0-2.44-.39h-5.91V102h3.5V96.1h2l3,5.85h4l-3.53-6.37A5,5,0,0,0,118.53,93.73ZM115,92.62a2.07,2.07,0,0,1-1.57.6h-2.23V89h2.23a2.13,2.13,0,0,1,1.57.57,2.34,2.34,0,0,1,0,3.06Z"/><path class="cls-1" d="M132,86h-4L122.1,102h3.77l1.22-3.65h5.61l1.22,3.65h3.94Zm-4.1,9.48,2-6,1.93,6Z"/><path class="cls-1" d="M1.46,78A5,5,0,0,0,3,79.22a4.18,4.18,0,0,0,2,.46,4.18,4.18,0,0,0,2-.46A5,5,0,0,0,8.52,78a6.27,6.27,0,0,0,1.06-1.9,7,7,0,0,0,0-4.62,6.21,6.21,0,0,0-1.06-1.89,5.06,5.06,0,0,0-1.58-1.26A4.19,4.19,0,0,0,5,67.81a4.26,4.26,0,0,0-2,.47,5.06,5.06,0,0,0-1.58,1.26,6.19,6.19,0,0,0-1,1.89,7,7,0,0,0,0,4.62A6.06,6.06,0,0,0,1.46,78Zm.66-5.79a4.1,4.1,0,0,1,.61-1.26,3.14,3.14,0,0,1,1-.85A2.62,2.62,0,0,1,5,69.74a2.63,2.63,0,0,1,1.28.31,3,3,0,0,1,1,.85,3.9,3.9,0,0,1,.62,1.26,5.4,5.4,0,0,1,0,3,4.12,4.12,0,0,1-.62,1.28,3.06,3.06,0,0,1-1,.86A2.54,2.54,0,0,1,5,77.68a2.53,2.53,0,0,1-1.29-.33,3.17,3.17,0,0,1-1-.86,4.33,4.33,0,0,1-.61-1.28,5.4,5.4,0,0,1,0-3Z"/><path class="cls-1" d="M19.11,79.38,16.9,74.67a3.05,3.05,0,0,0,1.21-1.31,4.33,4.33,0,0,0,.39-1.88,4.19,4.19,0,0,0-.17-1.13,3.25,3.25,0,0,0-.57-1.09,2.87,2.87,0,0,0-1-.82,3.28,3.28,0,0,0-1.54-.32H12V79.38h1.74V74.94h1.36l1.94,4.44Zm-2.82-6.67a1.29,1.29,0,0,1-1.07.47H13.77V69.92h1.45a1.29,1.29,0,0,1,1,.46,1.71,1.71,0,0,1,.41,1.18A1.81,1.81,0,0,1,16.29,72.71Z"/><path class="cls-1" d="M25.71,75.23h1.71V77a2.7,2.7,0,0,1-2,.75,2.91,2.91,0,0,1-1.23-.28,3.26,3.26,0,0,1-1-.81,3.71,3.71,0,0,1-.68-1.24,5,5,0,0,1-.26-1.64,5.63,5.63,0,0,1,.21-1.55,4.09,4.09,0,0,1,.6-1.28,3.21,3.21,0,0,1,1-.88,2.42,2.42,0,0,1,1.26-.33,2.45,2.45,0,0,1,1.53.47,4.39,4.39,0,0,1,1.07,1.25l1.28-1.33a5.7,5.7,0,0,0-.66-.89,4,4,0,0,0-.86-.71A4.11,4.11,0,0,0,26.52,68a4.49,4.49,0,0,0-1.3-.17,4.15,4.15,0,0,0-2,.47,4.91,4.91,0,0,0-1.56,1.28,5.91,5.91,0,0,0-1,1.89,7.32,7.32,0,0,0-.36,2.32,7.63,7.63,0,0,0,.34,2.29,5.56,5.56,0,0,0,1,1.85,4.58,4.58,0,0,0,3.68,1.7,5.17,5.17,0,0,0,2.35-.47,5,5,0,0,0,1.48-1.1V73.42H25.71Z"/><path class="cls-1" d="M31.42,68.12v7.11A5.78,5.78,0,0,0,31.68,77a4,4,0,0,0,.76,1.41,3.51,3.51,0,0,0,1.23,1,4.2,4.2,0,0,0,3.31,0,3.51,3.51,0,0,0,1.23-1A4.16,4.16,0,0,0,39,77a5.78,5.78,0,0,0,.26-1.75V68.12H37.42v6.74A5.76,5.76,0,0,1,37.31,76a2.42,2.42,0,0,1-.35.88,1.61,1.61,0,0,1-.65.56,2.65,2.65,0,0,1-2,0,1.61,1.61,0,0,1-.65-.56,2.26,2.26,0,0,1-.35-.88,5.76,5.76,0,0,1-.11-1.15V68.12Z"/><polygon class="cls-1" points="41.69 68.12 41.69 79.38 48.22 79.38 48.22 77.49 43.49 77.49 43.49 68.12 41.69 68.12"/><polygon class="cls-1" points="58.27 79.38 58.27 68.12 56.46 68.12 56.46 72.64 51.71 72.64 51.71 68.12 49.91 68.12 49.91 79.38 51.71 79.38 51.71 74.53 56.46 74.53 56.46 79.38 58.27 79.38"/><path class="cls-1" d="M68.87,69.54a5.18,5.18,0,0,0-1.58-1.26,4.3,4.3,0,0,0-3.91,0,5,5,0,0,0-1.58,1.26,6.21,6.21,0,0,0-1.06,1.89,7.21,7.21,0,0,0,0,4.62A6.49,6.49,0,0,0,61.8,78a5.1,5.1,0,0,0,1.59,1.27,4.36,4.36,0,0,0,3.9,0A5.06,5.06,0,0,0,68.87,78a6.27,6.27,0,0,0,1.06-1.9,7,7,0,0,0,0-4.62A6.21,6.21,0,0,0,68.87,69.54Zm-.66,5.67a4.35,4.35,0,0,1-.62,1.28,3.06,3.06,0,0,1-1,.86,2.67,2.67,0,0,1-2.57,0,3.06,3.06,0,0,1-1-.86,4.61,4.61,0,0,1-.62-1.28,5.64,5.64,0,0,1,0-3,4.36,4.36,0,0,1,.62-1.26,3,3,0,0,1,1-.85,2.82,2.82,0,0,1,2.57,0,3,3,0,0,1,1,.85,4.12,4.12,0,0,1,.62,1.26,5.64,5.64,0,0,1,0,3Z"/><path class="cls-1" d="M75.27,77.73a2,2,0,0,1-.82-.16,2.37,2.37,0,0,1-.66-.38,3.62,3.62,0,0,1-.54-.49l-.41-.49-1.26,1.36a5.72,5.72,0,0,0,.57.71A4.19,4.19,0,0,0,73,79a4.27,4.27,0,0,0,1,.51,3.82,3.82,0,0,0,1.3.2,3.46,3.46,0,0,0,1.38-.26,3.26,3.26,0,0,0,1.09-.73,3.55,3.55,0,0,0,.72-1.1,3.59,3.59,0,0,0,.26-1.37,4,4,0,0,0-.24-1.47A3.15,3.15,0,0,0,77,73a4.64,4.64,0,0,0-1.07-.41,7.44,7.44,0,0,1-1-.29,2.05,2.05,0,0,1-.61-.37,1.18,1.18,0,0,1-.31-.44,1.27,1.27,0,0,1-.1-.54,1.28,1.28,0,0,1,.81-1.14,1.59,1.59,0,0,1,.64-.12,2,2,0,0,1,.75.13,2.56,2.56,0,0,1,.57.31,2.21,2.21,0,0,1,.39.34l.23.25,1.19-1.32c0-.08-.15-.21-.28-.38a3,3,0,0,0-.57-.53,4.07,4.07,0,0,0-.91-.48,3.92,3.92,0,0,0-1.31-.2,3.71,3.71,0,0,0-1.47.27,3,3,0,0,0-1,.72,2.79,2.79,0,0,0-.62,1,3.85,3.85,0,0,0-.2,1.22,3.6,3.6,0,0,0,.16,1.09,3.17,3.17,0,0,0,.47,1,3.23,3.23,0,0,0,.8.76,3.46,3.46,0,0,0,1.14.47,9.26,9.26,0,0,1,1.09.32,2.68,2.68,0,0,1,.7.38,1.14,1.14,0,0,1,.39.49,1.54,1.54,0,0,1-1.55,2.19Z"/><path class="cls-1" d="M87,79.38h2L85.38,68.12H83.51L79.88,79.38h1.89l.84-2.85h3.56Zm-3.89-4.61,1.28-4.37,1.26,4.37Z"/><polygon class="cls-1" points="99.54 68.12 97.86 68.12 95.25 73.44 92.59 68.12 90.92 68.12 90.46 79.38 92.15 79.38 92.47 71.7 94.78 76.17 95.62 76.17 97.92 71.58 98.24 79.38 100 79.38 99.54 68.12"/><polygon class="cls-1" points="108.58 69.99 108.58 68.12 102.38 68.12 102.38 79.38 108.92 79.38 108.92 77.47 104.19 77.47 104.19 74.53 107.42 74.53 107.42 72.64 104.19 72.64 104.19 69.99 108.58 69.99"/><polygon class="cls-1" points="112.74 68.12 110.91 68.12 110.91 79.38 112.68 79.38 112.68 71.28 117.36 79.38 119.14 79.38 119.14 68.12 117.37 68.12 117.37 76.12 112.74 68.12"/><polygon class="cls-1" points="124.02 79.38 125.83 79.38 125.83 69.99 129.07 69.99 129.07 68.12 120.78 68.12 120.78 69.99 124.02 69.99 124.02 79.38"/><polygon class="cls-1" points="136.92 69.99 136.92 68.12 130.72 68.12 130.72 79.38 137.25 79.38 137.25 77.47 132.53 77.47 132.53 74.53 135.75 74.53 135.75 72.64 132.53 72.64 132.53 69.99 136.92 69.99"/><path class="cls-1" d="M9.7,62H127.54a9.74,9.74,0,0,0,9.71-9.7V9.7A9.74,9.74,0,0,0,127.54,0H9.7A9.73,9.73,0,0,0,0,9.7V52.27A9.73,9.73,0,0,0,9.7,62ZM2.55,9.7A7.16,7.16,0,0,1,9.7,2.55H127.54A7.16,7.16,0,0,1,134.7,9.7V52.27a7.16,7.16,0,0,1-7.16,7.15H9.7a7.16,7.16,0,0,1-7.15-7.15Z"/><path class="cls-1" d="M85.4,30.88a17,17,0,1,0-17,17A17,17,0,0,0,85.4,30.88Zm-17-14.43A14.45,14.45,0,0,1,82.85,30.88a14.09,14.09,0,0,1-.21,2.36,34.6,34.6,0,0,0-11.68-7,33.94,33.94,0,0,0-15.36-2A14.43,14.43,0,0,1,68.41,16.45ZM54,30.88A14.66,14.66,0,0,1,54.52,27a30.76,30.76,0,0,1,15.57,1.65,31.5,31.5,0,0,1,11.78,7.4A14.42,14.42,0,0,1,54,30.88Z"/><path class="cls-1" d="M15.08,32.15,67.89,56a1.31,1.31,0,0,0,.52.11,1.4,1.4,0,0,0,.53-.11l52.81-23.85A1.29,1.29,0,0,0,122.5,31a1.3,1.3,0,0,0-.75-1.17L68.94,6a1.28,1.28,0,0,0-1,0L15.08,29.82A1.29,1.29,0,0,0,14.33,31,1.27,1.27,0,0,0,15.08,32.15ZM68.41,8.54,118.12,31,68.41,53.44,18.7,31Z"/></g></g></svg>